<svg xmlns="http://www.w3.org/2000/svg" viewBox="0 0 1000 500" preserveAspectRatio="xMidYMid slice"><defs><radialGradient id="r" cx="50%" cy="45%" r="70%"><stop offset="0" stop-color="#2563eb" stop-opacity=".30"/><stop offset=".45" stop-color="#0f172a" stop-opacity=".72"/><stop offset="1" stop-color="#020617"/></radialGradient><filter id="blur"><feGaussianBlur stdDeviation="18"/></filter></defs><rect width="1000" height="500" fill="#020617"/><rect width="1000" height="500" fill="url(#r)"/><path d="M-30 340 C 190 210 270 440 500 270 S 800 130 1030 240" fill="none" stroke="#2563eb" stroke-opacity=".28" stroke-width="42" filter="url(#blur)"/><g><line x1="913" y1="426" x2="57" y2="156" stroke="#2563eb" stroke-opacity=".25" stroke-width="1"/><line x1="913" y1="426" x2="174" y2="102" stroke="#2563eb" stroke-opacity=".25" stroke-width="1"/><line x1="913" y1="426" x2="653" y2="172" stroke="#2563eb" stroke-opacity=".25" stroke-width="1"/><line x1="57" y1="156" x2="174" y2="102" stroke="#2563eb" stroke-opacity=".25" stroke-width="1"/><line x1="57" y1="156" x2="653" y2="172" stroke="#2563eb" stroke-opacity=".25" stroke-width="1"/><line x1="57" y1="156" x2="106" y2="230" stroke="#2563eb" stroke-opacity=".25" stroke-width="1"/><line x1="174" y1="102" x2="653" y2="172" stroke="#2563eb" stroke-opacity=".25" stroke-width="1"/><line x1="174" y1="102" x2="106" y2="230" stroke="#2563eb" stroke-opacity=".25" stroke-width="1"/><line x1="174" y1="102" x2="376" y2="286" stroke="#2563eb" stroke-opacity=".25" stroke-width="1"/><line x1="653" y1="172" x2="106" y2="230" stroke="#2563eb" stroke-opacity=".25" stroke-width="1"/><line x1="653" y1="172" x2="376" y2="286" stroke="#2563eb" stroke-opacity=".25" stroke-width="1"/><line x1="653" y1="172" x2="433" y2="117" stroke="#2563eb" stroke-opacity=".25" stroke-width="1"/><line x1="106" y1="230" x2="376" y2="286" stroke="#2563eb" stroke-opacity=".25" stroke-width="1"/><line x1="106" y1="230" x2="433" y2="117" stroke="#2563eb" stroke-opacity=".25" stroke-width="1"/><line x1="106" y1="230" x2="71" y2="114" stroke="#2563eb" stroke-opacity=".25" stroke-width="1"/><line x1="376" y1="286" x2="433" y2="117" stroke="#2563eb" stroke-opacity=".25" stroke-width="1"/><line x1="376" y1="286" x2="71" y2="114" stroke="#2563eb" stroke-opacity=".25" stroke-width="1"/><line x1="376" y1="286" x2="887" y2="379" stroke="#2563eb" stroke-opacity=".25" stroke-width="1"/><line x1="433" y1="117" x2="71" y2="114" stroke="#2563eb" stroke-opacity=".25" stroke-width="1"/><line x1="433" y1="117" x2="887" y2="379" stroke="#2563eb" stroke-opacity=".25" stroke-width="1"/><line x1="433" y1="117" x2="372" y2="334" stroke="#2563eb" stroke-opacity=".25" stroke-width="1"/><line x1="71" y1="114" x2="887" y2="379" stroke="#2563eb" stroke-opacity=".25" stroke-width="1"/><line x1="71" y1="114" x2="372" y2="334" stroke="#2563eb" stroke-opacity=".25" stroke-width="1"/><line x1="71" y1="114" x2="754" y2="261" stroke="#2563eb" stroke-opacity=".25" stroke-width="1"/><line x1="887" y1="379" x2="372" y2="334" stroke="#2563eb" stroke-opacity=".25" stroke-width="1"/><line x1="887" y1="379" x2="754" y2="261" stroke="#2563eb" stroke-opacity=".25" stroke-width="1"/><line x1="887" y1="379" x2="953" y2="284" stroke="#2563eb" stroke-opacity=".25" stroke-width="1"/><line x1="372" y1="334" x2="754" y2="261" stroke="#2563eb" stroke-opacity=".25" stroke-width="1"/><line x1="372" y1="334" x2="953" y2="284" stroke="#2563eb" stroke-opacity=".25" stroke-width="1"/><line x1="372" y1="334" x2="841" y2="244" stroke="#2563eb" stroke-opacity=".25" stroke-width="1"/><line x1="754" y1="261" x2="953" y2="284" stroke="#2563eb" stroke-opacity=".25" stroke-width="1"/><line x1="754" y1="261" x2="841" y2="244" stroke="#2563eb" stroke-opacity=".25" stroke-width="1"/><line x1="754" y1="261" x2="176" y2="188" stroke="#2563eb" stroke-opacity=".25" stroke-width="1"/><line x1="953" y1="284" x2="841" y2="244" stroke="#2563eb" stroke-opacity=".25" stroke-width="1"/><line x1="953" y1="284" x2="176" y2="188" stroke="#2563eb" stroke-opacity=".25" stroke-width="1"/><line x1="953" y1="284" x2="154" y2="432" stroke="#2563eb" stroke-opacity=".25" stroke-width="1"/><line x1="841" y1="244" x2="176" y2="188" stroke="#2563eb" stroke-opacity=".25" stroke-width="1"/><line x1="841" y1="244" x2="154" y2="432" stroke="#2563eb" stroke-opacity=".25" stroke-width="1"/><line x1="841" y1="244" x2="902" y2="308" stroke="#2563eb" stroke-opacity=".25" stroke-width="1"/><line x1="176" y1="188" x2="154" y2="432" stroke="#2563eb" stroke-opacity=".25" stroke-width="1"/><line x1="176" y1="188" x2="902" y2="308" stroke="#2563eb" stroke-opacity=".25" stroke-width="1"/><line x1="176" y1="188" x2="380" y2="286" stroke="#2563eb" stroke-opacity=".25" stroke-width="1"/><line x1="154" y1="432" x2="902" y2="308" stroke="#2563eb" stroke-opacity=".25" stroke-width="1"/><line x1="154" y1="432" x2="380" y2="286" stroke="#2563eb" stroke-opacity=".25" stroke-width="1"/><line x1="154" y1="432" x2="271" y2="358" stroke="#2563eb" stroke-opacity=".25" stroke-width="1"/><line x1="902" y1="308" x2="380" y2="286" stroke="#2563eb" stroke-opacity=".25" stroke-width="1"/><line x1="902" y1="308" x2="271" y2="358" stroke="#2563eb" stroke-opacity=".25" stroke-width="1"/><line x1="902" y1="308" x2="87" y2="135" stroke="#2563eb" stroke-opacity=".25" stroke-width="1"/><line x1="380" y1="286" x2="271" y2="358" stroke="#2563eb" stroke-opacity=".25" stroke-width="1"/><line x1="380" y1="286" x2="87" y2="135" stroke="#2563eb" stroke-opacity=".25" stroke-width="1"/><line x1="380" y1="286" x2="585" y2="294" stroke="#2563eb" stroke-opacity=".25" stroke-width="1"/><line x1="271" y1="358" x2="87" y2="135" stroke="#2563eb" stroke-opacity=".25" stroke-width="1"/><line x1="271" y1="358" x2="585" y2="294" stroke="#2563eb" stroke-opacity=".25" stroke-width="1"/><line x1="271" y1="358" x2="716" y2="97" stroke="#2563eb" stroke-opacity=".25" stroke-width="1"/><line x1="87" y1="135" x2="585" y2="294" stroke="#2563eb" stroke-opacity=".25" stroke-width="1"/><line x1="87" y1="135" x2="716" y2="97" stroke="#2563eb" stroke-opacity=".25" stroke-width="1"/><line x1="87" y1="135" x2="499" y2="272" stroke="#2563eb" stroke-opacity=".25" stroke-width="1"/><line x1="585" y1="294" x2="716" y2="97" stroke="#2563eb" stroke-opacity=".25" stroke-width="1"/><line x1="585" y1="294" x2="499" y2="272" stroke="#2563eb" stroke-opacity=".25" stroke-width="1"/><line x1="585" y1="294" x2="169" y2="179" stroke="#2563eb" stroke-opacity=".25" stroke-width="1"/><line x1="716" y1="97" x2="499" y2="272" stroke="#2563eb" stroke-opacity=".25" stroke-width="1"/><line x1="716" y1="97" x2="169" y2="179" stroke="#2563eb" stroke-opacity=".25" stroke-width="1"/><line x1="716" y1="97" x2="187" y2="409" stroke="#2563eb" stroke-opacity=".25" stroke-width="1"/><line x1="499" y1="272" x2="169" y2="179" stroke="#2563eb" stroke-opacity=".25" stroke-width="1"/><line x1="499" y1="272" x2="187" y2="409" stroke="#2563eb" stroke-opacity=".25" stroke-width="1"/><line x1="169" y1="179" x2="187" y2="409" stroke="#2563eb" stroke-opacity=".25" stroke-width="1"/><circle cx="913" cy="426" r="3" fill="#2563eb" fill-opacity=".75"/><circle cx="57" cy="156" r="4" fill="#2563eb" fill-opacity=".75"/><circle cx="174" cy="102" r="5" fill="#2563eb" fill-opacity=".75"/><circle cx="653" cy="172" r="6" fill="#2563eb" fill-opacity=".75"/><circle cx="106" cy="230" r="3" fill="#2563eb" fill-opacity=".75"/><circle cx="376" cy="286" r="4" fill="#2563eb" fill-opacity=".75"/><circle cx="433" cy="117" r="5" fill="#2563eb" fill-opacity=".75"/><circle cx="71" cy="114" r="6" fill="#2563eb" fill-opacity=".75"/><circle cx="887" cy="379" r="3" fill="#2563eb" fill-opacity=".75"/><circle cx="372" cy="334" r="4" fill="#2563eb" fill-opacity=".75"/><circle cx="754" cy="261" r="5" fill="#2563eb" fill-opacity=".75"/><circle cx="953" cy="284" r="6" fill="#2563eb" fill-opacity=".75"/><circle cx="841" cy="244" r="3" fill="#2563eb" fill-opacity=".75"/><circle cx="176" cy="188" r="4" fill="#2563eb" fill-opacity=".75"/><circle cx="154" cy="432" r="5" fill="#2563eb" fill-opacity=".75"/><circle cx="902" cy="308" r="6" fill="#2563eb" fill-opacity=".75"/><circle cx="380" cy="286" r="3" fill="#2563eb" fill-opacity=".75"/><circle cx="271" cy="358" r="4" fill="#2563eb" fill-opacity=".75"/><circle cx="87" cy="135" r="5" fill="#2563eb" fill-opacity=".75"/><circle cx="585" cy="294" r="6" fill="#2563eb" fill-opacity=".75"/><circle cx="716" cy="97" r="3" fill="#2563eb" fill-opacity=".75"/><circle cx="499" cy="272" r="4" fill="#2563eb" fill-opacity=".75"/><circle cx="169" cy="179" r="5" fill="#2563eb" fill-opacity=".75"/><circle cx="187" cy="409" r="6" fill="#2563eb" fill-opacity=".75"/></g><text x="50" y="455" fill="white" fill-opacity=".08" font-family="monospace" font-size="52" font-weight="700">SECURE SYSTEMS</text></svg>