<svg xmlns="http://www.w3.org/2000/svg" viewBox="0 0 1000 500" preserveAspectRatio="xMidYMid slice"><defs><radialGradient id="r" cx="50%" cy="45%" r="70%"><stop offset="0" stop-color="#60a5fa" stop-opacity=".30"/><stop offset=".45" stop-color="#0f172a" stop-opacity=".72"/><stop offset="1" stop-color="#020617"/></radialGradient><filter id="blur"><feGaussianBlur stdDeviation="18"/></filter></defs><rect width="1000" height="500" fill="#020617"/><rect width="1000" height="500" fill="url(#r)"/><path d="M-30 340 C 190 210 270 440 500 270 S 800 130 1030 240" fill="none" stroke="#60a5fa" stroke-opacity=".28" stroke-width="42" filter="url(#blur)"/><g><line x1="283" y1="336" x2="965" y2="433" stroke="#60a5fa" stroke-opacity=".25" stroke-width="1"/><line x1="283" y1="336" x2="846" y2="468" stroke="#60a5fa" stroke-opacity=".25" stroke-width="1"/><line x1="283" y1="336" x2="662" y2="260" stroke="#60a5fa" stroke-opacity=".25" stroke-width="1"/><line x1="965" y1="433" x2="846" y2="468" stroke="#60a5fa" stroke-opacity=".25" stroke-width="1"/><line x1="965" y1="433" x2="662" y2="260" stroke="#60a5fa" stroke-opacity=".25" stroke-width="1"/><line x1="965" y1="433" x2="125" y2="445" stroke="#60a5fa" stroke-opacity=".25" stroke-width="1"/><line x1="846" y1="468" x2="662" y2="260" stroke="#60a5fa" stroke-opacity=".25" stroke-width="1"/><line x1="846" y1="468" x2="125" y2="445" stroke="#60a5fa" stroke-opacity=".25" stroke-width="1"/><line x1="846" y1="468" x2="243" y2="173" stroke="#60a5fa" stroke-opacity=".25" stroke-width="1"/><line x1="662" y1="260" x2="125" y2="445" stroke="#60a5fa" stroke-opacity=".25" stroke-width="1"/><line x1="662" y1="260" x2="243" y2="173" stroke="#60a5fa" stroke-opacity=".25" stroke-width="1"/><line x1="662" y1="260" x2="287" y2="354" stroke="#60a5fa" stroke-opacity=".25" stroke-width="1"/><line x1="125" y1="445" x2="243" y2="173" stroke="#60a5fa" stroke-opacity=".25" stroke-width="1"/><line x1="125" y1="445" x2="287" y2="354" stroke="#60a5fa" stroke-opacity=".25" stroke-width="1"/><line x1="125" y1="445" x2="774" y2="304" stroke="#60a5fa" stroke-opacity=".25" stroke-width="1"/><line x1="243" y1="173" x2="287" y2="354" stroke="#60a5fa" stroke-opacity=".25" stroke-width="1"/><line x1="243" y1="173" x2="774" y2="304" stroke="#60a5fa" stroke-opacity=".25" stroke-width="1"/><line x1="243" y1="173" x2="47" y2="344" stroke="#60a5fa" stroke-opacity=".25" stroke-width="1"/><line x1="287" y1="354" x2="774" y2="304" stroke="#60a5fa" stroke-opacity=".25" stroke-width="1"/><line x1="287" y1="354" x2="47" y2="344" stroke="#60a5fa" stroke-opacity=".25" stroke-width="1"/><line x1="287" y1="354" x2="825" y2="336" stroke="#60a5fa" stroke-opacity=".25" stroke-width="1"/><line x1="774" y1="304" x2="47" y2="344" stroke="#60a5fa" stroke-opacity=".25" stroke-width="1"/><line x1="774" y1="304" x2="825" y2="336" stroke="#60a5fa" stroke-opacity=".25" stroke-width="1"/><line x1="774" y1="304" x2="198" y2="419" stroke="#60a5fa" stroke-opacity=".25" stroke-width="1"/><line x1="47" y1="344" x2="825" y2="336" stroke="#60a5fa" stroke-opacity=".25" stroke-width="1"/><line x1="47" y1="344" x2="198" y2="419" stroke="#60a5fa" stroke-opacity=".25" stroke-width="1"/><line x1="47" y1="344" x2="475" y2="97" stroke="#60a5fa" stroke-opacity=".25" stroke-width="1"/><line x1="825" y1="336" x2="198" y2="419" stroke="#60a5fa" stroke-opacity=".25" stroke-width="1"/><line x1="825" y1="336" x2="475" y2="97" stroke="#60a5fa" stroke-opacity=".25" stroke-width="1"/><line x1="825" y1="336" x2="926" y2="370" stroke="#60a5fa" stroke-opacity=".25" stroke-width="1"/><line x1="198" y1="419" x2="475" y2="97" stroke="#60a5fa" stroke-opacity=".25" stroke-width="1"/><line x1="198" y1="419" x2="926" y2="370" stroke="#60a5fa" stroke-opacity=".25" stroke-width="1"/><line x1="198" y1="419" x2="866" y2="400" stroke="#60a5fa" stroke-opacity=".25" stroke-width="1"/><line x1="475" y1="97" x2="926" y2="370" stroke="#60a5fa" stroke-opacity=".25" stroke-width="1"/><line x1="475" y1="97" x2="866" y2="400" stroke="#60a5fa" stroke-opacity=".25" stroke-width="1"/><line x1="475" y1="97" x2="968" y2="247" stroke="#60a5fa" stroke-opacity=".25" stroke-width="1"/><line x1="926" y1="370" x2="866" y2="400" stroke="#60a5fa" stroke-opacity=".25" stroke-width="1"/><line x1="926" y1="370" x2="968" y2="247" stroke="#60a5fa" stroke-opacity=".25" stroke-width="1"/><line x1="926" y1="370" x2="351" y2="416" stroke="#60a5fa" stroke-opacity=".25" stroke-width="1"/><line x1="866" y1="400" x2="968" y2="247" stroke="#60a5fa" stroke-opacity=".25" stroke-width="1"/><line x1="866" y1="400" x2="351" y2="416" stroke="#60a5fa" stroke-opacity=".25" stroke-width="1"/><line x1="866" y1="400" x2="181" y2="118" stroke="#60a5fa" stroke-opacity=".25" stroke-width="1"/><line x1="968" y1="247" x2="351" y2="416" stroke="#60a5fa" stroke-opacity=".25" stroke-width="1"/><line x1="968" y1="247" x2="181" y2="118" stroke="#60a5fa" stroke-opacity=".25" stroke-width="1"/><line x1="968" y1="247" x2="655" y2="284" stroke="#60a5fa" stroke-opacity=".25" stroke-width="1"/><line x1="351" y1="416" x2="181" y2="118" stroke="#60a5fa" stroke-opacity=".25" stroke-width="1"/><line x1="351" y1="416" x2="655" y2="284" stroke="#60a5fa" stroke-opacity=".25" stroke-width="1"/><line x1="351" y1="416" x2="30" y2="417" stroke="#60a5fa" stroke-opacity=".25" stroke-width="1"/><line x1="181" y1="118" x2="655" y2="284" stroke="#60a5fa" stroke-opacity=".25" stroke-width="1"/><line x1="181" y1="118" x2="30" y2="417" stroke="#60a5fa" stroke-opacity=".25" stroke-width="1"/><line x1="181" y1="118" x2="97" y2="119" stroke="#60a5fa" stroke-opacity=".25" stroke-width="1"/><line x1="655" y1="284" x2="30" y2="417" stroke="#60a5fa" stroke-opacity=".25" stroke-width="1"/><line x1="655" y1="284" x2="97" y2="119" stroke="#60a5fa" stroke-opacity=".25" stroke-width="1"/><line x1="30" y1="417" x2="97" y2="119" stroke="#60a5fa" stroke-opacity=".25" stroke-width="1"/><circle cx="283" cy="336" r="3" fill="#60a5fa" fill-opacity=".75"/><circle cx="965" cy="433" r="4" fill="#60a5fa" fill-opacity=".75"/><circle cx="846" cy="468" r="5" fill="#60a5fa" fill-opacity=".75"/><circle cx="662" cy="260" r="6" fill="#60a5fa" fill-opacity=".75"/><circle cx="125" cy="445" r="3" fill="#60a5fa" fill-opacity=".75"/><circle cx="243" cy="173" r="4" fill="#60a5fa" fill-opacity=".75"/><circle cx="287" cy="354" r="5" fill="#60a5fa" fill-opacity=".75"/><circle cx="774" cy="304" r="6" fill="#60a5fa" fill-opacity=".75"/><circle cx="47" cy="344" r="3" fill="#60a5fa" fill-opacity=".75"/><circle cx="825" cy="336" r="4" fill="#60a5fa" fill-opacity=".75"/><circle cx="198" cy="419" r="5" fill="#60a5fa" fill-opacity=".75"/><circle cx="475" cy="97" r="6" fill="#60a5fa" fill-opacity=".75"/><circle cx="926" cy="370" r="3" fill="#60a5fa" fill-opacity=".75"/><circle cx="866" cy="400" r="4" fill="#60a5fa" fill-opacity=".75"/><circle cx="968" cy="247" r="5" fill="#60a5fa" fill-opacity=".75"/><circle cx="351" cy="416" r="6" fill="#60a5fa" fill-opacity=".75"/><circle cx="181" cy="118" r="3" fill="#60a5fa" fill-opacity=".75"/><circle cx="655" cy="284" r="4" fill="#60a5fa" fill-opacity=".75"/><circle cx="30" cy="417" r="5" fill="#60a5fa" fill-opacity=".75"/><circle cx="97" cy="119" r="6" fill="#60a5fa" fill-opacity=".75"/></g><text x="50" y="455" fill="white" fill-opacity=".08" font-family="monospace" font-size="52" font-weight="700">CONSULTATION</text></svg>