<svg xmlns="http://www.w3.org/2000/svg" viewBox="0 0 1000 500" preserveAspectRatio="xMidYMid slice"><defs><radialGradient id="r" cx="50%" cy="45%" r="70%"><stop offset="0" stop-color="#3b82f6" stop-opacity=".30"/><stop offset=".45" stop-color="#0f172a" stop-opacity=".72"/><stop offset="1" stop-color="#020617"/></radialGradient><filter id="blur"><feGaussianBlur stdDeviation="18"/></filter></defs><rect width="1000" height="500" fill="#020617"/><rect width="1000" height="500" fill="url(#r)"/><path d="M-30 340 C 190 210 270 440 500 270 S 800 130 1030 240" fill="none" stroke="#3b82f6" stroke-opacity=".28" stroke-width="42" filter="url(#blur)"/><g><line x1="782" y1="113" x2="870" y2="94" stroke="#3b82f6" stroke-opacity=".25" stroke-width="1"/><line x1="782" y1="113" x2="802" y2="63" stroke="#3b82f6" stroke-opacity=".25" stroke-width="1"/><line x1="782" y1="113" x2="140" y2="156" stroke="#3b82f6" stroke-opacity=".25" stroke-width="1"/><line x1="870" y1="94" x2="802" y2="63" stroke="#3b82f6" stroke-opacity=".25" stroke-width="1"/><line x1="870" y1="94" x2="140" y2="156" stroke="#3b82f6" stroke-opacity=".25" stroke-width="1"/><line x1="870" y1="94" x2="364" y2="399" stroke="#3b82f6" stroke-opacity=".25" stroke-width="1"/><line x1="802" y1="63" x2="140" y2="156" stroke="#3b82f6" stroke-opacity=".25" stroke-width="1"/><line x1="802" y1="63" x2="364" y2="399" stroke="#3b82f6" stroke-opacity=".25" stroke-width="1"/><line x1="802" y1="63" x2="661" y2="245" stroke="#3b82f6" stroke-opacity=".25" stroke-width="1"/><line x1="140" y1="156" x2="364" y2="399" stroke="#3b82f6" stroke-opacity=".25" stroke-width="1"/><line x1="140" y1="156" x2="661" y2="245" stroke="#3b82f6" stroke-opacity=".25" stroke-width="1"/><line x1="140" y1="156" x2="532" y2="329" stroke="#3b82f6" stroke-opacity=".25" stroke-width="1"/><line x1="364" y1="399" x2="661" y2="245" stroke="#3b82f6" stroke-opacity=".25" stroke-width="1"/><line x1="364" y1="399" x2="532" y2="329" stroke="#3b82f6" stroke-opacity=".25" stroke-width="1"/><line x1="364" y1="399" x2="238" y2="154" stroke="#3b82f6" stroke-opacity=".25" stroke-width="1"/><line x1="661" y1="245" x2="532" y2="329" stroke="#3b82f6" stroke-opacity=".25" stroke-width="1"/><line x1="661" y1="245" x2="238" y2="154" stroke="#3b82f6" stroke-opacity=".25" stroke-width="1"/><line x1="661" y1="245" x2="801" y2="195" stroke="#3b82f6" stroke-opacity=".25" stroke-width="1"/><line x1="532" y1="329" x2="238" y2="154" stroke="#3b82f6" stroke-opacity=".25" stroke-width="1"/><line x1="532" y1="329" x2="801" y2="195" stroke="#3b82f6" stroke-opacity=".25" stroke-width="1"/><line x1="532" y1="329" x2="583" y2="301" stroke="#3b82f6" stroke-opacity=".25" stroke-width="1"/><line x1="238" y1="154" x2="801" y2="195" stroke="#3b82f6" stroke-opacity=".25" stroke-width="1"/><line x1="238" y1="154" x2="583" y2="301" stroke="#3b82f6" stroke-opacity=".25" stroke-width="1"/><line x1="238" y1="154" x2="439" y2="403" stroke="#3b82f6" stroke-opacity=".25" stroke-width="1"/><line x1="801" y1="195" x2="583" y2="301" stroke="#3b82f6" stroke-opacity=".25" stroke-width="1"/><line x1="801" y1="195" x2="439" y2="403" stroke="#3b82f6" stroke-opacity=".25" stroke-width="1"/><line x1="801" y1="195" x2="437" y2="190" stroke="#3b82f6" stroke-opacity=".25" stroke-width="1"/><line x1="583" y1="301" x2="439" y2="403" stroke="#3b82f6" stroke-opacity=".25" stroke-width="1"/><line x1="583" y1="301" x2="437" y2="190" stroke="#3b82f6" stroke-opacity=".25" stroke-width="1"/><line x1="583" y1="301" x2="252" y2="389" stroke="#3b82f6" stroke-opacity=".25" stroke-width="1"/><line x1="439" y1="403" x2="437" y2="190" stroke="#3b82f6" stroke-opacity=".25" stroke-width="1"/><line x1="439" y1="403" x2="252" y2="389" stroke="#3b82f6" stroke-opacity=".25" stroke-width="1"/><line x1="439" y1="403" x2="43" y2="319" stroke="#3b82f6" stroke-opacity=".25" stroke-width="1"/><line x1="437" y1="190" x2="252" y2="389" stroke="#3b82f6" stroke-opacity=".25" stroke-width="1"/><line x1="437" y1="190" x2="43" y2="319" stroke="#3b82f6" stroke-opacity=".25" stroke-width="1"/><line x1="437" y1="190" x2="101" y2="41" stroke="#3b82f6" stroke-opacity=".25" stroke-width="1"/><line x1="252" y1="389" x2="43" y2="319" stroke="#3b82f6" stroke-opacity=".25" stroke-width="1"/><line x1="252" y1="389" x2="101" y2="41" stroke="#3b82f6" stroke-opacity=".25" stroke-width="1"/><line x1="252" y1="389" x2="176" y2="53" stroke="#3b82f6" stroke-opacity=".25" stroke-width="1"/><line x1="43" y1="319" x2="101" y2="41" stroke="#3b82f6" stroke-opacity=".25" stroke-width="1"/><line x1="43" y1="319" x2="176" y2="53" stroke="#3b82f6" stroke-opacity=".25" stroke-width="1"/><line x1="43" y1="319" x2="610" y2="202" stroke="#3b82f6" stroke-opacity=".25" stroke-width="1"/><line x1="101" y1="41" x2="176" y2="53" stroke="#3b82f6" stroke-opacity=".25" stroke-width="1"/><line x1="101" y1="41" x2="610" y2="202" stroke="#3b82f6" stroke-opacity=".25" stroke-width="1"/><line x1="101" y1="41" x2="743" y2="193" stroke="#3b82f6" stroke-opacity=".25" stroke-width="1"/><line x1="176" y1="53" x2="610" y2="202" stroke="#3b82f6" stroke-opacity=".25" stroke-width="1"/><line x1="176" y1="53" x2="743" y2="193" stroke="#3b82f6" stroke-opacity=".25" stroke-width="1"/><line x1="176" y1="53" x2="97" y2="257" stroke="#3b82f6" stroke-opacity=".25" stroke-width="1"/><line x1="610" y1="202" x2="743" y2="193" stroke="#3b82f6" stroke-opacity=".25" stroke-width="1"/><line x1="610" y1="202" x2="97" y2="257" stroke="#3b82f6" stroke-opacity=".25" stroke-width="1"/><line x1="610" y1="202" x2="485" y2="403" stroke="#3b82f6" stroke-opacity=".25" stroke-width="1"/><line x1="743" y1="193" x2="97" y2="257" stroke="#3b82f6" stroke-opacity=".25" stroke-width="1"/><line x1="743" y1="193" x2="485" y2="403" stroke="#3b82f6" stroke-opacity=".25" stroke-width="1"/><line x1="743" y1="193" x2="554" y2="245" stroke="#3b82f6" stroke-opacity=".25" stroke-width="1"/><line x1="97" y1="257" x2="485" y2="403" stroke="#3b82f6" stroke-opacity=".25" stroke-width="1"/><line x1="97" y1="257" x2="554" y2="245" stroke="#3b82f6" stroke-opacity=".25" stroke-width="1"/><line x1="97" y1="257" x2="590" y2="405" stroke="#3b82f6" stroke-opacity=".25" stroke-width="1"/><line x1="485" y1="403" x2="554" y2="245" stroke="#3b82f6" stroke-opacity=".25" stroke-width="1"/><line x1="485" y1="403" x2="590" y2="405" stroke="#3b82f6" stroke-opacity=".25" stroke-width="1"/><line x1="485" y1="403" x2="65" y2="167" stroke="#3b82f6" stroke-opacity=".25" stroke-width="1"/><line x1="554" y1="245" x2="590" y2="405" stroke="#3b82f6" stroke-opacity=".25" stroke-width="1"/><line x1="554" y1="245" x2="65" y2="167" stroke="#3b82f6" stroke-opacity=".25" stroke-width="1"/><line x1="554" y1="245" x2="333" y2="360" stroke="#3b82f6" stroke-opacity=".25" stroke-width="1"/><line x1="590" y1="405" x2="65" y2="167" stroke="#3b82f6" stroke-opacity=".25" stroke-width="1"/><line x1="590" y1="405" x2="333" y2="360" stroke="#3b82f6" stroke-opacity=".25" stroke-width="1"/><line x1="590" y1="405" x2="89" y2="205" stroke="#3b82f6" stroke-opacity=".25" stroke-width="1"/><line x1="65" y1="167" x2="333" y2="360" stroke="#3b82f6" stroke-opacity=".25" stroke-width="1"/><line x1="65" y1="167" x2="89" y2="205" stroke="#3b82f6" stroke-opacity=".25" stroke-width="1"/><line x1="65" y1="167" x2="210" y2="456" stroke="#3b82f6" stroke-opacity=".25" stroke-width="1"/><line x1="333" y1="360" x2="89" y2="205" stroke="#3b82f6" stroke-opacity=".25" stroke-width="1"/><line x1="333" y1="360" x2="210" y2="456" stroke="#3b82f6" stroke-opacity=".25" stroke-width="1"/><line x1="333" y1="360" x2="592" y2="393" stroke="#3b82f6" stroke-opacity=".25" stroke-width="1"/><line x1="89" y1="205" x2="210" y2="456" stroke="#3b82f6" stroke-opacity=".25" stroke-width="1"/><line x1="89" y1="205" x2="592" y2="393" stroke="#3b82f6" stroke-opacity=".25" stroke-width="1"/><line x1="89" y1="205" x2="499" y2="272" stroke="#3b82f6" stroke-opacity=".25" stroke-width="1"/><line x1="210" y1="456" x2="592" y2="393" stroke="#3b82f6" stroke-opacity=".25" stroke-width="1"/><line x1="210" y1="456" x2="499" y2="272" stroke="#3b82f6" stroke-opacity=".25" stroke-width="1"/><line x1="592" y1="393" x2="499" y2="272" stroke="#3b82f6" stroke-opacity=".25" stroke-width="1"/><circle cx="782" cy="113" r="3" fill="#3b82f6" fill-opacity=".75"/><circle cx="870" cy="94" r="4" fill="#3b82f6" fill-opacity=".75"/><circle cx="802" cy="63" r="5" fill="#3b82f6" fill-opacity=".75"/><circle cx="140" cy="156" r="6" fill="#3b82f6" fill-opacity=".75"/><circle cx="364" cy="399" r="3" fill="#3b82f6" fill-opacity=".75"/><circle cx="661" cy="245" r="4" fill="#3b82f6" fill-opacity=".75"/><circle cx="532" cy="329" r="5" fill="#3b82f6" fill-opacity=".75"/><circle cx="238" cy="154" r="6" fill="#3b82f6" fill-opacity=".75"/><circle cx="801" cy="195" r="3" fill="#3b82f6" fill-opacity=".75"/><circle cx="583" cy="301" r="4" fill="#3b82f6" fill-opacity=".75"/><circle cx="439" cy="403" r="5" fill="#3b82f6" fill-opacity=".75"/><circle cx="437" cy="190" r="6" fill="#3b82f6" fill-opacity=".75"/><circle cx="252" cy="389" r="3" fill="#3b82f6" fill-opacity=".75"/><circle cx="43" cy="319" r="4" fill="#3b82f6" fill-opacity=".75"/><circle cx="101" cy="41" r="5" fill="#3b82f6" fill-opacity=".75"/><circle cx="176" cy="53" r="6" fill="#3b82f6" fill-opacity=".75"/><circle cx="610" cy="202" r="3" fill="#3b82f6" fill-opacity=".75"/><circle cx="743" cy="193" r="4" fill="#3b82f6" fill-opacity=".75"/><circle cx="97" cy="257" r="5" fill="#3b82f6" fill-opacity=".75"/><circle cx="485" cy="403" r="6" fill="#3b82f6" fill-opacity=".75"/><circle cx="554" cy="245" r="3" fill="#3b82f6" fill-opacity=".75"/><circle cx="590" cy="405" r="4" fill="#3b82f6" fill-opacity=".75"/><circle cx="65" cy="167" r="5" fill="#3b82f6" fill-opacity=".75"/><circle cx="333" cy="360" r="6" fill="#3b82f6" fill-opacity=".75"/><circle cx="89" cy="205" r="3" fill="#3b82f6" fill-opacity=".75"/><circle cx="210" cy="456" r="4" fill="#3b82f6" fill-opacity=".75"/><circle cx="592" cy="393" r="5" fill="#3b82f6" fill-opacity=".75"/><circle cx="499" cy="272" r="6" fill="#3b82f6" fill-opacity=".75"/></g><text x="50" y="455" fill="white" fill-opacity=".08" font-family="monospace" font-size="52" font-weight="700">SIGNAL DEV LABS</text></svg>