<svg xmlns="http://www.w3.org/2000/svg" viewBox="0 0 1000 500" preserveAspectRatio="xMidYMid slice"><defs><radialGradient id="r" cx="50%" cy="45%" r="70%"><stop offset="0" stop-color="#38bdf8" stop-opacity=".30"/><stop offset=".45" stop-color="#0f172a" stop-opacity=".72"/><stop offset="1" stop-color="#020617"/></radialGradient><filter id="blur"><feGaussianBlur stdDeviation="18"/></filter></defs><rect width="1000" height="500" fill="#020617"/><rect width="1000" height="500" fill="url(#r)"/><path d="M-30 340 C 190 210 270 440 500 270 S 800 130 1030 240" fill="none" stroke="#38bdf8" stroke-opacity=".28" stroke-width="42" filter="url(#blur)"/><g><line x1="944" y1="317" x2="159" y2="220" stroke="#38bdf8" stroke-opacity=".25" stroke-width="1"/><line x1="944" y1="317" x2="736" y2="82" stroke="#38bdf8" stroke-opacity=".25" stroke-width="1"/><line x1="944" y1="317" x2="318" y2="289" stroke="#38bdf8" stroke-opacity=".25" stroke-width="1"/><line x1="159" y1="220" x2="736" y2="82" stroke="#38bdf8" stroke-opacity=".25" stroke-width="1"/><line x1="159" y1="220" x2="318" y2="289" stroke="#38bdf8" stroke-opacity=".25" stroke-width="1"/><line x1="159" y1="220" x2="80" y2="444" stroke="#38bdf8" stroke-opacity=".25" stroke-width="1"/><line x1="736" y1="82" x2="318" y2="289" stroke="#38bdf8" stroke-opacity=".25" stroke-width="1"/><line x1="736" y1="82" x2="80" y2="444" stroke="#38bdf8" stroke-opacity=".25" stroke-width="1"/><line x1="736" y1="82" x2="208" y2="76" stroke="#38bdf8" stroke-opacity=".25" stroke-width="1"/><line x1="318" y1="289" x2="80" y2="444" stroke="#38bdf8" stroke-opacity=".25" stroke-width="1"/><line x1="318" y1="289" x2="208" y2="76" stroke="#38bdf8" stroke-opacity=".25" stroke-width="1"/><line x1="318" y1="289" x2="404" y2="254" stroke="#38bdf8" stroke-opacity=".25" stroke-width="1"/><line x1="80" y1="444" x2="208" y2="76" stroke="#38bdf8" stroke-opacity=".25" stroke-width="1"/><line x1="80" y1="444" x2="404" y2="254" stroke="#38bdf8" stroke-opacity=".25" stroke-width="1"/><line x1="80" y1="444" x2="872" y2="461" stroke="#38bdf8" stroke-opacity=".25" stroke-width="1"/><line x1="208" y1="76" x2="404" y2="254" stroke="#38bdf8" stroke-opacity=".25" stroke-width="1"/><line x1="208" y1="76" x2="872" y2="461" stroke="#38bdf8" stroke-opacity=".25" stroke-width="1"/><line x1="208" y1="76" x2="469" y2="390" stroke="#38bdf8" stroke-opacity=".25" stroke-width="1"/><line x1="404" y1="254" x2="872" y2="461" stroke="#38bdf8" stroke-opacity=".25" stroke-width="1"/><line x1="404" y1="254" x2="469" y2="390" stroke="#38bdf8" stroke-opacity=".25" stroke-width="1"/><line x1="404" y1="254" x2="261" y2="79" stroke="#38bdf8" stroke-opacity=".25" stroke-width="1"/><line x1="872" y1="461" x2="469" y2="390" stroke="#38bdf8" stroke-opacity=".25" stroke-width="1"/><line x1="872" y1="461" x2="261" y2="79" stroke="#38bdf8" stroke-opacity=".25" stroke-width="1"/><line x1="872" y1="461" x2="613" y2="179" stroke="#38bdf8" stroke-opacity=".25" stroke-width="1"/><line x1="469" y1="390" x2="261" y2="79" stroke="#38bdf8" stroke-opacity=".25" stroke-width="1"/><line x1="469" y1="390" x2="613" y2="179" stroke="#38bdf8" stroke-opacity=".25" stroke-width="1"/><line x1="469" y1="390" x2="608" y2="159" stroke="#38bdf8" stroke-opacity=".25" stroke-width="1"/><line x1="261" y1="79" x2="613" y2="179" stroke="#38bdf8" stroke-opacity=".25" stroke-width="1"/><line x1="261" y1="79" x2="608" y2="159" stroke="#38bdf8" stroke-opacity=".25" stroke-width="1"/><line x1="261" y1="79" x2="448" y2="198" stroke="#38bdf8" stroke-opacity=".25" stroke-width="1"/><line x1="613" y1="179" x2="608" y2="159" stroke="#38bdf8" stroke-opacity=".25" stroke-width="1"/><line x1="613" y1="179" x2="448" y2="198" stroke="#38bdf8" stroke-opacity=".25" stroke-width="1"/><line x1="613" y1="179" x2="342" y2="434" stroke="#38bdf8" stroke-opacity=".25" stroke-width="1"/><line x1="608" y1="159" x2="448" y2="198" stroke="#38bdf8" stroke-opacity=".25" stroke-width="1"/><line x1="608" y1="159" x2="342" y2="434" stroke="#38bdf8" stroke-opacity=".25" stroke-width="1"/><line x1="608" y1="159" x2="919" y2="303" stroke="#38bdf8" stroke-opacity=".25" stroke-width="1"/><line x1="448" y1="198" x2="342" y2="434" stroke="#38bdf8" stroke-opacity=".25" stroke-width="1"/><line x1="448" y1="198" x2="919" y2="303" stroke="#38bdf8" stroke-opacity=".25" stroke-width="1"/><line x1="448" y1="198" x2="584" y2="312" stroke="#38bdf8" stroke-opacity=".25" stroke-width="1"/><line x1="342" y1="434" x2="919" y2="303" stroke="#38bdf8" stroke-opacity=".25" stroke-width="1"/><line x1="342" y1="434" x2="584" y2="312" stroke="#38bdf8" stroke-opacity=".25" stroke-width="1"/><line x1="342" y1="434" x2="172" y2="198" stroke="#38bdf8" stroke-opacity=".25" stroke-width="1"/><line x1="919" y1="303" x2="584" y2="312" stroke="#38bdf8" stroke-opacity=".25" stroke-width="1"/><line x1="919" y1="303" x2="172" y2="198" stroke="#38bdf8" stroke-opacity=".25" stroke-width="1"/><line x1="919" y1="303" x2="146" y2="141" stroke="#38bdf8" stroke-opacity=".25" stroke-width="1"/><line x1="584" y1="312" x2="172" y2="198" stroke="#38bdf8" stroke-opacity=".25" stroke-width="1"/><line x1="584" y1="312" x2="146" y2="141" stroke="#38bdf8" stroke-opacity=".25" stroke-width="1"/><line x1="584" y1="312" x2="761" y2="326" stroke="#38bdf8" stroke-opacity=".25" stroke-width="1"/><line x1="172" y1="198" x2="146" y2="141" stroke="#38bdf8" stroke-opacity=".25" stroke-width="1"/><line x1="172" y1="198" x2="761" y2="326" stroke="#38bdf8" stroke-opacity=".25" stroke-width="1"/><line x1="172" y1="198" x2="189" y2="152" stroke="#38bdf8" stroke-opacity=".25" stroke-width="1"/><line x1="146" y1="141" x2="761" y2="326" stroke="#38bdf8" stroke-opacity=".25" stroke-width="1"/><line x1="146" y1="141" x2="189" y2="152" stroke="#38bdf8" stroke-opacity=".25" stroke-width="1"/><line x1="146" y1="141" x2="828" y2="436" stroke="#38bdf8" stroke-opacity=".25" stroke-width="1"/><line x1="761" y1="326" x2="189" y2="152" stroke="#38bdf8" stroke-opacity=".25" stroke-width="1"/><line x1="761" y1="326" x2="828" y2="436" stroke="#38bdf8" stroke-opacity=".25" stroke-width="1"/><line x1="761" y1="326" x2="88" y2="172" stroke="#38bdf8" stroke-opacity=".25" stroke-width="1"/><line x1="189" y1="152" x2="828" y2="436" stroke="#38bdf8" stroke-opacity=".25" stroke-width="1"/><line x1="189" y1="152" x2="88" y2="172" stroke="#38bdf8" stroke-opacity=".25" stroke-width="1"/><line x1="828" y1="436" x2="88" y2="172" stroke="#38bdf8" stroke-opacity=".25" stroke-width="1"/><circle cx="944" cy="317" r="3" fill="#38bdf8" fill-opacity=".75"/><circle cx="159" cy="220" r="4" fill="#38bdf8" fill-opacity=".75"/><circle cx="736" cy="82" r="5" fill="#38bdf8" fill-opacity=".75"/><circle cx="318" cy="289" r="6" fill="#38bdf8" fill-opacity=".75"/><circle cx="80" cy="444" r="3" fill="#38bdf8" fill-opacity=".75"/><circle cx="208" cy="76" r="4" fill="#38bdf8" fill-opacity=".75"/><circle cx="404" cy="254" r="5" fill="#38bdf8" fill-opacity=".75"/><circle cx="872" cy="461" r="6" fill="#38bdf8" fill-opacity=".75"/><circle cx="469" cy="390" r="3" fill="#38bdf8" fill-opacity=".75"/><circle cx="261" cy="79" r="4" fill="#38bdf8" fill-opacity=".75"/><circle cx="613" cy="179" r="5" fill="#38bdf8" fill-opacity=".75"/><circle cx="608" cy="159" r="6" fill="#38bdf8" fill-opacity=".75"/><circle cx="448" cy="198" r="3" fill="#38bdf8" fill-opacity=".75"/><circle cx="342" cy="434" r="4" fill="#38bdf8" fill-opacity=".75"/><circle cx="919" cy="303" r="5" fill="#38bdf8" fill-opacity=".75"/><circle cx="584" cy="312" r="6" fill="#38bdf8" fill-opacity=".75"/><circle cx="172" cy="198" r="3" fill="#38bdf8" fill-opacity=".75"/><circle cx="146" cy="141" r="4" fill="#38bdf8" fill-opacity=".75"/><circle cx="761" cy="326" r="5" fill="#38bdf8" fill-opacity=".75"/><circle cx="189" cy="152" r="6" fill="#38bdf8" fill-opacity=".75"/><circle cx="828" cy="436" r="3" fill="#38bdf8" fill-opacity=".75"/><circle cx="88" cy="172" r="4" fill="#38bdf8" fill-opacity=".75"/></g><text x="50" y="455" fill="white" fill-opacity=".08" font-family="monospace" font-size="52" font-weight="700">SERVICES</text></svg>